<svg id="ic_addpoll" xmlns="http://www.w3.org/2000/svg" width="24" height="24" viewBox="0 0 24 24">
  <path id="equalizer-24px" d="M12,20a2.006,2.006,0,0,0,2-2V6a2,2,0,0,0-4,0V18A2.006,2.006,0,0,0,12,20ZM6,20a2.006,2.006,0,0,0,2-2V14a2,2,0,0,0-4,0v4A2.006,2.006,0,0,0,6,20Zm10-9v7a2,2,0,0,0,4,0V11a2,2,0,0,0-4,0Z"/>
  <path id="Path_18418" data-name="Path 18418" d="M0,0H24V24H0Z" fill="none"/>
  <path id="Path_18419" data-name="Path 18419" d="M6,10V8A1,1,0,0,0,4,8v2H2a1,1,0,0,0,0,2H4v2a1,1,0,0,0,2,0V12H8a1,1,0,0,0,0-2Z" transform="translate(-1 -7)"/>
</svg>
