<svg id="ic_am_Pool" xmlns="http://www.w3.org/2000/svg" width="24" height="24" viewBox="0 0 24 24">
  <path id="Path_18530" data-name="Path 18530" d="M0,0H24V24H0Z" fill="none"/>
  <path id="Path_18531" data-name="Path 18531" d="M6.11,5.56A4.538,4.538,0,0,1,9,7l1,1L6.75,11.25a5.472,5.472,0,0,1,.77.39A1.8,1.8,0,0,0,8.67,12a1.8,1.8,0,0,0,1.15-.36A3.891,3.891,0,0,1,12.01,11a3.825,3.825,0,0,1,2.18.64,1.877,1.877,0,0,0,1.15.36,1.816,1.816,0,0,0,1.15-.36c.12-.07.26-.15.41-.23L10.48,5A6.093,6.093,0,0,0,6.3,3.05,1.211,1.211,0,0,0,5,4.26v.09A1.24,1.24,0,0,0,6.11,5.56ZM21.35,18.91a2.244,2.244,0,0,1-.5-.27,4.033,4.033,0,0,0-4.36,0,1.816,1.816,0,0,1-1.15.36,1.877,1.877,0,0,1-1.15-.36A3.825,3.825,0,0,0,12.01,18a3.891,3.891,0,0,0-2.19.64A1.8,1.8,0,0,1,8.67,19a1.8,1.8,0,0,1-1.15-.36A3.825,3.825,0,0,0,5.34,18a3.891,3.891,0,0,0-2.19.64,3.536,3.536,0,0,1-.5.27.907.907,0,0,0-.65.85v.12a.971.971,0,0,0,1.3.91,4.912,4.912,0,0,0,.89-.44A1.874,1.874,0,0,1,5.34,20a1.816,1.816,0,0,1,1.15.36A3.825,3.825,0,0,0,8.67,21a3.891,3.891,0,0,0,2.19-.64A1.8,1.8,0,0,1,12.01,20a1.877,1.877,0,0,1,1.15.36,4.033,4.033,0,0,0,4.36,0A1.8,1.8,0,0,1,18.67,20a1.877,1.877,0,0,1,1.15.36,4.485,4.485,0,0,0,.88.44.974.974,0,0,0,1.3-.91v-.12a.909.909,0,0,0-.65-.86ZM3.11,16.35a4.5,4.5,0,0,0,1.09-.49,1.816,1.816,0,0,1,1.15-.36,1.877,1.877,0,0,1,1.15.36,3.825,3.825,0,0,0,2.18.64,3.825,3.825,0,0,0,2.18-.64,1.8,1.8,0,0,1,1.15-.36,1.877,1.877,0,0,1,1.15.36,4.033,4.033,0,0,0,4.36,0,1.8,1.8,0,0,1,1.15-.36,1.877,1.877,0,0,1,1.15.36,4.775,4.775,0,0,0,.85.43.978.978,0,0,0,1.31-.91v-.12a.932.932,0,0,0-.64-.86,3.078,3.078,0,0,1-.51-.26,4.033,4.033,0,0,0-4.36,0,1.816,1.816,0,0,1-1.15.36,1.877,1.877,0,0,1-1.15-.36,3.825,3.825,0,0,0-2.18-.64,3.825,3.825,0,0,0-2.18.64,1.8,1.8,0,0,1-1.15.36,1.877,1.877,0,0,1-1.15-.36,3.825,3.825,0,0,0-2.18-.64,3.825,3.825,0,0,0-2.18.64,3.536,3.536,0,0,1-.5.27.907.907,0,0,0-.65.85v.23A.882.882,0,0,0,3.11,16.35Z"/>
  <circle id="Ellipse_2252" data-name="Ellipse 2252" cx="2.5" cy="2.5" r="2.5" transform="translate(14 3)"/>
</svg>
