<svg id="ic_am_Tennis" xmlns="http://www.w3.org/2000/svg" width="24" height="24" viewBox="0 0 24 24">
  <g id="Bounding_Box">
    <rect id="Rectangle_8359" data-name="Rectangle 8359" width="24" height="24" fill="none"/>
    <rect id="Rectangle_8360" data-name="Rectangle 8360" width="24" height="24" fill="none"/>
  </g>
  <g id="Master">
    <path id="Path_18532" data-name="Path 18532" d="M19.52,2.49C17.18.15,12.9.62,9.97,3.55A8.674,8.674,0,0,0,7.43,9.01c-.02,1.58.26,3.89-1.35,5.5L2.54,18.04a1.008,1.008,0,0,0,0,1.42h0a1.008,1.008,0,0,0,1.42,0l3.53-3.54c1.61-1.61,3.92-1.33,5.5-1.35a8.7,8.7,0,0,0,5.46-2.54C21.38,9.11,21.86,4.83,19.52,2.49Zm-9.2,9.19c-1.53-1.53-1.05-4.61,1.06-6.72S16.56,2.37,18.1,3.9s1.05,4.61-1.06,6.72S11.86,13.21,10.32,11.68Z"/>
    <path id="Path_18533" data-name="Path 18533" d="M18,17a1.966,1.966,0,0,1,1.41.59A2,2,0,0,1,18,21a1.966,1.966,0,0,1-1.41-.59A2,2,0,0,1,18,17m0-2a4,4,0,1,0,2.83,1.17A4,4,0,0,0,18,15Z"/>
  </g>
</svg>
