<svg id="ic_am_Biliard" xmlns="http://www.w3.org/2000/svg" width="24" height="24" viewBox="0 0 24 24">
  <path id="Path_18526" data-name="Path 18526" d="M0,0H24V24H0Z" fill="none"/>
  <g id="Group_11047" data-name="Group 11047" transform="translate(14998 -8373)">
    <path id="Subtraction_69" data-name="Subtraction 69" d="M411,31244a9,9,0,1,1,9-9A8.935,8.935,0,0,1,411,31244Zm-2-16a5,5,0,1,0,5,5A5,5,0,0,0,409,31228Zm-1.051,7.488a2.2,2.2,0,0,1-1.4-.6,2.222,2.222,0,0,1-.839-1.295,1.562,1.562,0,0,1,.376-1.293,1.535,1.535,0,0,1,.714-.479,1.468,1.468,0,0,1,.439-.062,1.777,1.777,0,0,1,.439.055,1.539,1.539,0,0,1-.1-.77,1.389,1.389,0,0,1,.321-.705,1.49,1.49,0,0,1,1.161-.6h.031a1.974,1.974,0,0,1,1.3.541,2.013,2.013,0,0,1,.776,1.223,1.52,1.52,0,0,1-.392,1.248,1.38,1.38,0,0,1-.635.447,1.785,1.785,0,0,1-.447.063,1.339,1.339,0,0,1-.322-.031,1.771,1.771,0,0,1,.141.846,1.447,1.447,0,0,1-.361.8,1.56,1.56,0,0,1-1.2.6Zm-.2-2.721a.268.268,0,0,0-.078.008.774.774,0,0,0-.5.3.8.8,0,0,0-.212.549.667.667,0,0,0,.251.463.606.606,0,0,0,.408.166.155.155,0,0,0,.031,0l.013,0a.292.292,0,0,1,.043,0,.77.77,0,0,0,.494-.3.783.783,0,0,0,.22-.541.646.646,0,0,0-.251-.463A.566.566,0,0,0,407.751,31232.766Zm1.631-1.812a.385.385,0,0,0-.094.008.778.778,0,0,0-.423.291.81.81,0,0,0-.212.479.471.471,0,0,0,.2.416.48.48,0,0,0,.314.125.507.507,0,0,0,.118-.016.866.866,0,0,0,.431-.3.784.784,0,0,0,.212-.463.511.511,0,0,0-.2-.406A.549.549,0,0,0,409.382,31230.953Z" transform="translate(-15397 -22850)"/>
  </g>
</svg>
