<svg id="ic_Apaman" xmlns="http://www.w3.org/2000/svg" width="24" height="24" viewBox="0 0 24 24">
  <rect id="Rectangle_8225" data-name="Rectangle 8225" width="24" height="24" fill="none"/>
  <path id="Path_18381" data-name="Path 18381" d="M30.4,49.88h0a1.9,1.9,0,0,1,1.9,1.9v3.8H28.5v-3.8a1.9,1.9,0,0,1,1.9-1.9Z" transform="translate(-18.5 -34.173)"/>
  <path id="Path_18382" data-name="Path 18382" d="M9.155-.017A9.655,9.655,0,0,0,0,9.711v9.275H3.8V9.673A5.825,5.825,0,0,1,9.4,3.785a5.7,5.7,0,0,1,5.8,5.7v9.5H19v-9.5a9.5,9.5,0,0,0-9.848-9.5Z" transform="translate(2.4 2.424)"/>
</svg>
