<svg id="ic_alldone" xmlns="http://www.w3.org/2000/svg" width="24" height="24" viewBox="0 0 24 24">
  <path id="Path_18389" data-name="Path 18389" d="M0,0H24V24H0Z" fill="none"/>
  <path id="Path_18390" data-name="Path 18390" d="M17.3,6.3a1,1,0,0,0-1.41,0l-5.64,5.64,1.41,1.41L17.3,7.7a1,1,0,0,0,0-1.4Zm4.24-.01-9.88,9.88L8.18,12.7a1,1,0,0,0-1.41,1.41l4.18,4.18a1,1,0,0,0,1.41,0L22.95,7.71a1,1,0,0,0,0-1.41h-.01a.975.975,0,0,0-1.4-.01ZM1.12,14.12,5.3,18.3a1,1,0,0,0,1.41,0l.7-.7L2.53,12.7a1,1,0,0,0-1.41,0,1.008,1.008,0,0,0,0,1.42Z"/>
</svg>
