<svg xmlns="http://www.w3.org/2000/svg" xmlns:xlink="http://www.w3.org/1999/xlink" width="24" height="24" viewBox="0 0 24 24">
  <defs>
    <clipPath id="clip-path">
      <rect width="24" height="24" fill="none"/>
    </clipPath>
  </defs>
  <g id="ic_close" clip-path="url(#clip-path)">
    <path id="Path_289" data-name="Path 289" d="M0,0H24V24H0Z" fill="none"/>
    <path id="Path_290" data-name="Path 290" d="M18.3,5.71a1,1,0,0,0-1.41,0L12,10.59,7.11,5.7A1,1,0,0,0,5.7,7.11L10.59,12,5.7,16.89A1,1,0,0,0,7.11,18.3L12,13.41l4.89,4.89a1,1,0,0,0,1.41-1.41L13.41,12,18.3,7.11A1,1,0,0,0,18.3,5.71Z"/>
  </g>
</svg>
