<svg id="ic_car" xmlns="http://www.w3.org/2000/svg" width="24" height="24" viewBox="0 0 24 24">
  <path id="Path_305" data-name="Path 305" d="M0,0H24V24H0Z" fill="none"/>
  <path id="Path_306" data-name="Path 306" d="M18.92,6.01A1.494,1.494,0,0,0,17.5,5H6.5A1.5,1.5,0,0,0,5.08,6.01L3.11,11.68a2.076,2.076,0,0,0-.11.66V19.5a1.5,1.5,0,0,0,3,0V19H18v.5a1.5,1.5,0,0,0,3,0V12.34a2.124,2.124,0,0,0-.11-.66ZM6.5,16A1.5,1.5,0,1,1,8,14.5,1.5,1.5,0,0,1,6.5,16Zm11,0A1.5,1.5,0,1,1,19,14.5,1.5,1.5,0,0,1,17.5,16ZM5,11,6.27,7.18a1.014,1.014,0,0,1,.95-.68h9.56a1.014,1.014,0,0,1,.95.68L19,11Z"/>
</svg>
