<svg id="ic_Calendar" xmlns="http://www.w3.org/2000/svg" width="24" height="24" viewBox="0 0 24 24">
  <g id="Group_11101" data-name="Group 11101">
    <path id="Path_18552" data-name="Path 18552" d="M0,0H24V24H0Z" fill="none"/>
    <path id="Path_18553" data-name="Path 18553" d="M0,0H24V24H0Z" fill="none" opacity="0.87"/>
  </g>
  <path id="Path_18557" data-name="Path 18557" d="M20,3H19V2a1,1,0,0,0-2,0V3H7V2A1,1,0,0,0,5,2V3H4A2.006,2.006,0,0,0,2,5V21a2.006,2.006,0,0,0,2,2H20a2.006,2.006,0,0,0,2-2V5A2.006,2.006,0,0,0,20,3ZM19,21H5a1,1,0,0,1-1-1V8H20V20A1,1,0,0,1,19,21Z"/>
</svg>
