<svg xmlns="http://www.w3.org/2000/svg" xmlns:xlink="http://www.w3.org/1999/xlink" width="24" height="23.999" viewBox="0 0 24 23.999">
  <defs>
    <clipPath id="clip-path">
      <rect width="24" height="23.999" fill="none"/>
    </clipPath>
  </defs>
  <g id="ic_done_circle" clip-path="url(#clip-path)">
    <path id="Subtraction_17" data-name="Subtraction 17" d="M12,24A12,12,0,0,1,3.513,3.512a12,12,0,0,1,16.971,16.97A11.921,11.921,0,0,1,12,24ZM12,2A10,10,0,1,0,22,12,10.011,10.011,0,0,0,12,2Z" transform="translate(0.002 0.003)"/>
    <g id="Group_1001" data-name="Group 1001" transform="translate(2.4 2.4)">
      <path id="Path_345" data-name="Path 345" d="M0,0H19.2V19.2H0Z" fill="none"/>
      <path id="Path_346" data-name="Path 346" d="M11.471,17.669a1.2,1.2,0,0,1-1.692,0L7.259,15.16a1.2,1.2,0,1,1,1.692-1.692l1.668,1.668,5.376-5.377a1.2,1.2,0,0,1,1.692,1.692l-6.216,6.218Z" transform="translate(-2.707 -3.406)"/>
    </g>
  </g>
</svg>
