<svg xmlns="http://www.w3.org/2000/svg" xmlns:xlink="http://www.w3.org/1999/xlink" width="24" height="24" viewBox="0 0 24 24">
  <defs>
    <clipPath id="clip-path">
      <rect width="24" height="24" fill="none"/>
    </clipPath>
  </defs>
  <g id="ic_delete" clip-path="url(#clip-path)">
    <path id="Path_65" data-name="Path 65" d="M0,0H24V24H0Z" fill="none"/>
    <path id="Path_66" data-name="Path 66" d="M6,19a2.006,2.006,0,0,0,2,2h8a2.006,2.006,0,0,0,2-2V9a2.006,2.006,0,0,0-2-2H8A2.006,2.006,0,0,0,6,9ZM18,4H15.5l-.71-.71a1.009,1.009,0,0,0-.7-.29H9.91a1.009,1.009,0,0,0-.7.29L8.5,4H6A1,1,0,0,0,6,6H18a1,1,0,0,0,0-2Z"/>
  </g>
</svg>
