<svg id="ic_deleteX" xmlns="http://www.w3.org/2000/svg" width="24" height="24" viewBox="0 0 24 24">
  <path id="Path_440" data-name="Path 440" d="M0,0H24V24H0Z" fill="none"/>
  <path id="Subtraction_38" data-name="Subtraction 38" d="M10,20A10,10,0,1,1,20,10,10.013,10.013,0,0,1,10,20Zm0-8.586h0l2.118,2.123a1,1,0,0,0,1.414-1.414L11.417,10l2.12-2.123a1,1,0,0,0,0-1.414,1,1,0,0,0-1.414,0L10,8.585,7.881,6.462a1,1,0,0,0-1.415,0,1,1,0,0,0,0,1.414L8.59,10,6.466,12.122a1,1,0,0,0,1.415,1.414L10,11.413Z" transform="translate(1.999 2.001)"/>
</svg>
