<svg id="ic_HideCard" xmlns="http://www.w3.org/2000/svg" width="24" height="24" viewBox="0 0 24 24">
  <path id="Path_18361" data-name="Path 18361" d="M0,0H24V24H0Z" fill="none"/>
  <path id="Union_15" data-name="Union 15" d="M17.678,19.092l-1.253-1.253H2.339a2,2,0,0,1-2-2l.01-12A2,2,0,0,1,.966,2.38L.707,2.121A1,1,0,0,1,2.121.707l16.97,16.97a1,1,0,1,1-1.414,1.414ZM2.339,14.839a1,1,0,0,0,1,1H14.425l-6-6H2.339Zm0-9H4.425l-2-2H2.339Zm17.8,10.883-1.8-1.8c0-.028,0-.056,0-.084v-5H13.253l-4-4h9.087v-2H7.252l-2-2H18.339a2,2,0,0,1,2,2v12a1.982,1.982,0,0,1-.2.882v0Z" transform="translate(1.661 2.161)"/>
</svg>
