<svg xmlns="http://www.w3.org/2000/svg" xmlns:xlink="http://www.w3.org/1999/xlink" width="24" height="24" viewBox="0 0 24 24">
  <defs>
    <clipPath id="clip-path">
      <rect width="24" height="24" fill="none"/>
    </clipPath>
  </defs>
  <g id="ic_hourglass" clip-path="url(#clip-path)">
    <path id="Path_50" data-name="Path 50" d="M0,0H24V24H0Z" fill="none"/>
    <path id="Path_51" data-name="Path 51" d="M8,2A2.006,2.006,0,0,0,6,4V7.17a2.006,2.006,0,0,0,.59,1.42L10,12,6.58,15.42A2.039,2.039,0,0,0,6,16.84V20a2.006,2.006,0,0,0,2,2h8a2.006,2.006,0,0,0,2-2V16.84a2,2,0,0,0-.58-1.41L14,12l3.41-3.4A2.006,2.006,0,0,0,18,7.18V4a2.006,2.006,0,0,0-2-2Zm8,14.5V19a1,1,0,0,1-1,1H9a1,1,0,0,1-1-1V16.5l4-4Zm-4-5-4-4V5A1,1,0,0,1,9,4h6a1,1,0,0,1,1,1V7.5Z"/>
    <path id="Subtraction_4" data-name="Subtraction 4" d="M-816-229h-4l-3.41-3.41a2.023,2.023,0,0,1-.41-.59h11.644a2.013,2.013,0,0,1-.414.6L-816-229Z" transform="translate(830 241)"/>
  </g>
</svg>
