<svg id="ic_HidePassword" xmlns="http://www.w3.org/2000/svg" width="24" height="24" viewBox="0 0 24 24">
  <path id="Path_18359" data-name="Path 18359" d="M0,0H24V24H0Z" fill="none"/>
  <g id="Group_10597" data-name="Group 10597" transform="translate(-284 -108)">
    <path id="Subtraction_40" data-name="Subtraction 40" d="M15695,21296.633a11.723,11.723,0,0,1-6.726-2.105,5.967,5.967,0,0,1,1.52-11.689l2.257,2.258a5,5,0,1,0,6.987,6.986l2.545,2.545A11.734,11.734,0,0,1,15695,21296.633Zm8.149-3.266v0l-3.244-3.244a5.1,5.1,0,0,0,.1-.992,5,5,0,0,0-5.989-4.9l-2.172-2.172a8.063,8.063,0,1,1,11.31,11.307Zm-8.149-1.234a3,3,0,0,1-1.508-5.6l4.1,4.105A3.014,3.014,0,0,1,15695,21292.133Zm2.78-4.137-1.646-1.645a3.017,3.017,0,0,1,1.647,1.645Z" transform="translate(-15399 -21169.131)"/>
    <rect id="Rectangle_8204" data-name="Rectangle 8204" width="25" height="2" rx="1" transform="translate(287.782 109.868) rotate(45)"/>
  </g>
</svg>
