<svg xmlns="http://www.w3.org/2000/svg" xmlns:xlink="http://www.w3.org/1999/xlink" width="24" height="24" viewBox="0 0 24 24">
  <defs>
    <clipPath id="clip-path">
      <rect width="24" height="24" fill="none"/>
    </clipPath>
  </defs>
  <g id="ic_IDcard" clip-path="url(#clip-path)">
    <path id="Path_414" data-name="Path 414" d="M0,0H24V24H0Z" fill="none"/>
    <path id="Path_415" data-name="Path 415" d="M21,4H3A2.006,2.006,0,0,0,1,6V19a2.006,2.006,0,0,0,2,2H21a2.006,2.006,0,0,0,2-2V6A2.006,2.006,0,0,0,21,4Zm0,14a1,1,0,0,1-1,1H12V6h8a1,1,0,0,1,1,1ZM19.25,9.5h-5.5a.75.75,0,0,0,0,1.5h5.5a.75.75,0,0,0,0-1.5Zm0,2.5h-5.5a.75.75,0,0,0,0,1.5h5.5a.75.75,0,0,0,0-1.5Zm0,2.5h-5.5a.75.75,0,0,0,0,1.5h5.5a.75.75,0,0,0,0-1.5Z"/>
  </g>
</svg>
