<svg xmlns="http://www.w3.org/2000/svg" xmlns:xlink="http://www.w3.org/1999/xlink" width="24" height="24" viewBox="0 0 24 24">
  <defs>
    <clipPath id="clip-path">
      <rect width="24" height="24" fill="none"/>
    </clipPath>
  </defs>
  <g id="ic_laundry" clip-path="url(#clip-path)">
    <path id="Path_317" data-name="Path 317" d="M0,0H24V24H0Z" fill="none"/>
    <path id="Path_318" data-name="Path 318" d="M9.55,16.45a.494.494,0,0,0,.02.73,4,4,0,0,0,5.61-5.61.486.486,0,0,0-.73-.02l-4.9,4.9ZM18,2.01,6,2A1.993,1.993,0,0,0,4,4V20a1.993,1.993,0,0,0,2,2H18a1.993,1.993,0,0,0,2-2V4A1.985,1.985,0,0,0,18,2.01ZM10,4A1,1,0,1,1,9,5,1,1,0,0,1,10,4ZM7,4A1,1,0,1,1,6,5,1,1,0,0,1,7,4Zm5,16a6,6,0,1,1,6-6A6,6,0,0,1,12,20Z"/>
  </g>
</svg>
