<svg id="ic_map" xmlns="http://www.w3.org/2000/svg" width="24" height="24" viewBox="0 0 24 24">
  <path id="Path_88" data-name="Path 88" d="M0,0H24V24H0Z" fill="none"/>
  <g id="_24px_9_" data-name="24px (9)">
    <path id="Path_429" data-name="Path 429" d="M0,0H24V24H0Z" fill="none"/>
    <path id="Path_430" data-name="Path 430" d="M14.65,4.98l-5-1.75a2,2,0,0,0-1.3-.01L4.36,4.56A2.014,2.014,0,0,0,3,6.46V18.31a1.993,1.993,0,0,0,2.72,1.86l2.93-1.14a.966.966,0,0,1,.69-.01l5,1.75a2,2,0,0,0,1.3.01l3.99-1.34a2,2,0,0,0,1.36-1.9V5.69a1.993,1.993,0,0,0-2.72-1.86L15.34,4.97a1.021,1.021,0,0,1-.69.01ZM15,18.89,9,16.78V5.11l6,2.11Z"/>
  </g>
</svg>
