<svg xmlns="http://www.w3.org/2000/svg" xmlns:xlink="http://www.w3.org/1999/xlink" width="24" height="24" viewBox="0 0 24 24">
  <defs>
    <clipPath id="clip-path">
      <rect width="24" height="24" fill="none"/>
    </clipPath>
  </defs>
  <g id="ic_money" clip-path="url(#clip-path)">
    <path id="Path_55" data-name="Path 55" d="M0,0H24V24H0Z" fill="none"/>
    <path id="Path_56" data-name="Path 56" d="M11.8,10.9c-2.27-.59-3-1.2-3-2.15,0-1.09,1.01-1.85,2.7-1.85,1.42,0,2.13.54,2.39,1.4a.925.925,0,0,0,.87.7h.3a.948.948,0,0,0,.9-1.27A4,4,0,0,0,13,5.19V4.5a1.5,1.5,0,0,0-3,0v.66c-1.94.42-3.5,1.68-3.5,3.61,0,2.31,1.91,3.46,4.7,4.13,2.5.6,3,1.48,3,2.41,0,.69-.49,1.79-2.7,1.79-1.65,0-2.5-.59-2.83-1.43a.984.984,0,0,0-.9-.67H7.49a.954.954,0,0,0-.89,1.3A4.5,4.5,0,0,0,10,18.83v.67a1.5,1.5,0,0,0,3,0v-.65c1.95-.37,3.5-1.5,3.5-3.55,0-2.84-2.43-3.81-4.7-4.4Z"/>
  </g>
</svg>
