<svg xmlns="http://www.w3.org/2000/svg" xmlns:xlink="http://www.w3.org/1999/xlink" width="24" height="24" viewBox="0 0 24 24">
  <defs>
    <clipPath id="clip-path">
      <rect width="24" height="24" fill="none"/>
    </clipPath>
  </defs>
  <g id="ic_nd1_users" clip-path="url(#clip-path)">
    <path id="Path_361" data-name="Path 361" d="M0,0H24V24H0Z" fill="none"/>
    <path id="Path_362" data-name="Path 362" d="M16,11a3,3,0,1,0-3-3A2.987,2.987,0,0,0,16,11ZM8,11A3,3,0,1,0,5,8,2.987,2.987,0,0,0,8,11Zm0,2c-2.33,0-7,1.17-7,3.5V18a1,1,0,0,0,1,1H14a1,1,0,0,0,1-1V16.5C15,14.17,10.33,13,8,13Zm8,0c-.29,0-.62.02-.97.05.02.01.03.03.04.04A4.16,4.16,0,0,1,17,16.5V18a3,3,0,0,1-.18,1H22a1,1,0,0,0,1-1V16.5C23,14.17,18.33,13,16,13Z"/>
  </g>
</svg>
