<svg xmlns="http://www.w3.org/2000/svg" xmlns:xlink="http://www.w3.org/1999/xlink" width="24" height="24" viewBox="0 0 24 24">
  <defs>
    <clipPath id="clip-path">
      <rect width="24" height="24" fill="none"/>
    </clipPath>
  </defs>
  <g id="ic_notifications" clip-path="url(#clip-path)">
    <path id="Path_88" data-name="Path 88" d="M0,0H24V24H0Z" fill="none"/>
    <path id="Path_89" data-name="Path 89" d="M12,22a2.006,2.006,0,0,0,2-2H10A2,2,0,0,0,12,22Zm6-6V11c0-3.07-1.64-5.64-4.5-6.32V4a1.5,1.5,0,0,0-3,0v.68C7.63,5.36,6,7.92,6,11v5L4.71,17.29A1,1,0,0,0,5.41,19H18.58a1,1,0,0,0,.71-1.71Z"/>
  </g>
</svg>
