<svg xmlns="http://www.w3.org/2000/svg" xmlns:xlink="http://www.w3.org/1999/xlink" width="24" height="24" viewBox="0 0 24 24">
  <defs>
    <clipPath id="clip-path">
      <rect width="24" height="24" fill="none"/>
    </clipPath>
  </defs>
  <g id="ic_nd1_feedback" clip-path="url(#clip-path)">
    <path id="Path_365" data-name="Path 365" d="M0,0H24V24H0Z" fill="none"/>
    <path id="Path_366" data-name="Path 366" d="M20,6H10v5a1,1,0,0,1-2,0V4h5a1,1,0,0,0,1-1V1a1,1,0,0,0-1-1H7A1,1,0,0,0,6,1V6H4A2.006,2.006,0,0,0,2,8V20a2.006,2.006,0,0,0,2,2H20a2.006,2.006,0,0,0,2-2V8A2.006,2.006,0,0,0,20,6Z"/>
  </g>
</svg>
