<svg xmlns="http://www.w3.org/2000/svg" xmlns:xlink="http://www.w3.org/1999/xlink" width="24" height="24" viewBox="0 0 24 24">
  <defs>
    <clipPath id="clip-path">
      <rect width="24" height="24" fill="none"/>
    </clipPath>
  </defs>
  <g id="ic_nd2_manual" clip-path="url(#clip-path)">
    <path id="Path_371" data-name="Path 371" d="M0,0H24V24H0Z" fill="none"/>
    <path id="Path_372" data-name="Path 372" d="M20,4H4A1.985,1.985,0,0,0,2.01,6L2,18a1.993,1.993,0,0,0,2,2H20a1.993,1.993,0,0,0,2-2V6A1.993,1.993,0,0,0,20,4ZM19,18H5a1,1,0,0,1-1-1V12H20v5A1,1,0,0,1,19,18ZM20,8H4V6H20Z"/>
  </g>
</svg>
