<svg xmlns="http://www.w3.org/2000/svg" xmlns:xlink="http://www.w3.org/1999/xlink" width="24" height="24" viewBox="0 0 24 24">
  <defs>
    <clipPath id="clip-path">
      <rect width="24" height="24" fill="none"/>
    </clipPath>
  </defs>
  <g id="ic_nd1_rules" clip-path="url(#clip-path)">
    <path id="Path_363" data-name="Path 363" d="M0,0H24V24H0Z" fill="none"/>
    <path id="Path_364" data-name="Path 364" d="M19,3H14.82A2.988,2.988,0,0,0,9.18,3H5A2.006,2.006,0,0,0,3,5V19a2.006,2.006,0,0,0,2,2H19a2.006,2.006,0,0,0,2-2V5A2.006,2.006,0,0,0,19,3ZM12,3a1,1,0,1,1-1,1A1,1,0,0,1,12,3Zm1,14H8a1,1,0,0,1,0-2h5a1,1,0,0,1,0,2Zm3-4H8a1,1,0,0,1,0-2h8a1,1,0,0,1,0,2Zm0-4H8A1,1,0,0,1,8,7h8a1,1,0,0,1,0,2Z"/>
  </g>
</svg>
