<svg xmlns="http://www.w3.org/2000/svg" xmlns:xlink="http://www.w3.org/1999/xlink" width="24" height="24" viewBox="0 0 24 24">
  <defs>
    <clipPath id="clip-path">
      <rect width="24" height="24" fill="none"/>
    </clipPath>
  </defs>
  <g id="ic_nd3_billsetting" clip-path="url(#clip-path)">
    <path id="Path_375" data-name="Path 375" d="M0,0H24V24H0Z" fill="none"/>
    <path id="Subtraction_7" data-name="Subtraction 7" d="M11.73,20h-4a.488.488,0,0,1-.49-.419L6.86,16.93a7.346,7.346,0,0,1-1.69-.98l-2.49,1a.506.506,0,0,1-.174.03.494.494,0,0,1-.436-.25l-2-3.461a.5.5,0,0,1,.121-.64L2.3,10.98a7.861,7.861,0,0,1-.07-.98,7.854,7.854,0,0,1,.07-.98L.19,7.37a.49.49,0,0,1-.121-.64l2-3.461A.489.489,0,0,1,2.5,3.016a.5.5,0,0,1,.182.035l2.49,1a7.65,7.65,0,0,1,1.69-.98L7.24.42A.488.488,0,0,1,7.729,0h4a.488.488,0,0,1,.49.42l.38,2.65a7.377,7.377,0,0,1,1.69.98l2.49-1a.506.506,0,0,1,.174-.03.494.494,0,0,1,.436.25l2,3.461a.5.5,0,0,1-.12.64L17.159,9.02a7.836,7.836,0,0,1,.07.98,7.791,7.791,0,0,1-.07.98l2.111,1.65a.5.5,0,0,1,.12.64l-2,3.461a.489.489,0,0,1-.428.254.5.5,0,0,1-.182-.035l-2.49-1a7.613,7.613,0,0,1-1.69.98l-.38,2.651A.488.488,0,0,1,11.73,20Zm-4.66-7.631a.676.676,0,0,0-.559.3.683.683,0,0,0-.07.639,3.1,3.1,0,0,0,2.367,1.82v.488A1.065,1.065,0,0,0,9.854,16.7h.007a1.065,1.065,0,0,0,1.047-1.081v-.472A2.652,2.652,0,0,0,13.37,12.58c0-2.03-1.662-2.745-3.288-3.177-1.511-.4-2.1-.838-2.1-1.553,0-.809.741-1.332,1.887-1.332.909,0,1.47.342,1.668,1.015a.641.641,0,0,0,.606.5h.2a.666.666,0,0,0,.549-.287.685.685,0,0,0,.088-.631,2.839,2.839,0,0,0-2.069-1.836v-.5A1.065,1.065,0,0,0,9.869,3.7H9.861A1.065,1.065,0,0,0,8.816,4.78v.488A2.794,2.794,0,0,0,6.369,7.876c0,1.473,1.045,2.421,3.288,2.982,1.85.454,2.1,1.134,2.1,1.739,0,.624-.5,1.291-1.887,1.291-1.039,0-1.722-.357-1.974-1.031a.7.7,0,0,0-.637-.488Z" transform="translate(2.271 2)"/>
  </g>
</svg>
