<svg xmlns="http://www.w3.org/2000/svg" xmlns:xlink="http://www.w3.org/1999/xlink" width="24" height="24" viewBox="0 0 24 24">
  <defs>
    <clipPath id="clip-path">
      <rect width="24" height="24" fill="none"/>
    </clipPath>
  </defs>
  <g id="ic_nd3_charge" clip-path="url(#clip-path)">
    <path id="Path_379" data-name="Path 379" d="M0,0H24V24H0Z" fill="none"/>
    <path id="Path_380" data-name="Path 380" d="M21,2.21a.469.469,0,0,0-.35.15l-.79.79a.5.5,0,0,1-.71,0l-.79-.79a.5.5,0,0,0-.71,0l-.79.79a.5.5,0,0,1-.71,0l-.79-.79a.5.5,0,0,0-.71,0l-.79.79a.5.5,0,0,1-.71,0l-.79-.79a.5.5,0,0,0-.71,0l-.79.79a.5.5,0,0,1-.71,0l-.8-.8a.5.5,0,0,0-.71,0l-.79.8a.5.5,0,0,1-.71,0l-.79-.8a.5.5,0,0,0-.71,0l-.79.8a.5.5,0,0,1-.71,0l-.79-.8A.5.5,0,0,0,3,2.21V21.8a.469.469,0,0,0,.35-.15l.79-.79a.5.5,0,0,1,.71,0l.79.79a.5.5,0,0,0,.71,0l.79-.79a.5.5,0,0,1,.71,0l.79.79a.5.5,0,0,0,.71,0l.79-.79a.5.5,0,0,1,.71,0l.79.79a.5.5,0,0,0,.71,0l.79-.79a.5.5,0,0,1,.71,0l.79.79a.5.5,0,0,0,.71,0l.79-.79a.5.5,0,0,1,.71,0l.79.79a.5.5,0,0,0,.71,0l.79-.79a.5.5,0,0,1,.71,0l.79.79a.5.5,0,0,0,.35.15V2.21ZM17,17H7a1,1,0,0,1,0-2H17a1,1,0,0,1,0,2Zm0-4H7a1,1,0,0,1,0-2H17a1,1,0,0,1,0,2Zm0-4H7A1,1,0,0,1,7,7H17a1,1,0,0,1,0,2Z"/>
  </g>
</svg>
