<svg id="ic_period_notadded" xmlns="http://www.w3.org/2000/svg" width="24" height="24" viewBox="0 0 24 24">
  <path id="Path_18372" data-name="Path 18372" d="M0,0H24V24H0Z" fill="none"/>
  <g id="Group_10686" data-name="Group 10686" transform="translate(15772 -2525)">
    <path id="Subtraction_46" data-name="Subtraction 46" d="M6.029,15.763h0a7.972,7.972,0,0,1-4.573-3.143,8.054,8.054,0,0,1-1.4-5.556,8.033,8.033,0,0,1,7.1-7.02A8.249,8.249,0,0,1,7.99,0a7.936,7.936,0,0,1,5.643,2.352l.64-.65a.984.984,0,0,1,.7-.294,1,1,0,0,1,1.011,1V6a1,1,0,0,1-1,1h-3.59a.978.978,0,0,1-.918-.614.99.99,0,0,1,.218-1.1L12.2,3.783A5.911,5.911,0,0,0,7.983,2a6,6,0,0,0-1.37,11.84l.14.03a4.586,4.586,0,0,0-.724,1.89Z" transform="translate(-15767.983 2528.997)"/>
    <path id="Union_17" data-name="Union 17" d="M-805.634,25271.775l-2.122-2.121-2.122,2.121a1,1,0,0,1-1.414,0,1,1,0,0,1,0-1.414l2.123-2.121-2.123-2.123a.986.986,0,0,1,0-1.406.993.993,0,0,1,1.414,0l2.122,2.119,2.122-2.119a.993.993,0,0,1,1.414,0,1,1,0,0,1,0,1.406l-2.123,2.123,2.123,2.121a1.006,1.006,0,0,1,0,1.414,1,1,0,0,1-.71.295A.982.982,0,0,1-805.634,25271.775Z" transform="translate(-14948.242 -22726.242)"/>
  </g>
</svg>
