<svg id="ic_penalty_done" xmlns="http://www.w3.org/2000/svg" width="24" height="24" viewBox="0 0 24 24">
  <rect id="Rectangle_8222" data-name="Rectangle 8222" width="24" height="24" fill="none"/>
  <path id="Subtraction_47" data-name="Subtraction 47" d="M15111.5,23313.006h-8.5a2,2,0,0,1-1.732-3l7.531-13.014a2,2,0,0,1,3.458,0l6.611,11.424-2.966,2.965a2.5,2.5,0,0,0-4.406,1.615v.006Zm-1.965-5h0v2h2v-2Zm1-6a1,1,0,0,0-1,1v2a1,1,0,1,0,2,0v-2A1,1,0,0,0,15110.534,23302.01Z" transform="translate(-15099 -23293)"/>
  <path id="Path_18379" data-name="Path 18379" d="M10.71,16.29a1,1,0,0,1-1.41,0L7.2,14.2a1,1,0,0,1,1.41-1.41L10,14.18,14.48,9.7a1,1,0,0,1,1.41,1.41l-5.18,5.18Z" transform="translate(7 6.592)"/>
</svg>
