<svg id="ic_pr_OneMonth" xmlns="http://www.w3.org/2000/svg" width="24" height="24" viewBox="0 0 24 24">
  <path id="Path_18365" data-name="Path 18365" d="M0,0H24V24H0Z" fill="none"/>
  <g id="Group_10661" data-name="Group 10661" transform="translate(15109 -2198)">
    <path id="Path_18366" data-name="Path 18366" d="M17,2.667h-.833V1.833a.833.833,0,0,0-1.667,0v.833H6.167V1.833a.833.833,0,1,0-1.667,0v.833H3.667A1.672,1.672,0,0,0,2,4.333V17.667a1.672,1.672,0,0,0,1.667,1.667H17a1.672,1.672,0,0,0,1.667-1.667V4.333A1.672,1.672,0,0,0,17,2.667Zm-.833,15H4.5a.836.836,0,0,1-.833-.833v-10H17v10A.836.836,0,0,1,16.167,17.667Z" transform="translate(-15107 2200)"/>
  </g>
</svg>
