<svg id="ic_pr_Order" xmlns="http://www.w3.org/2000/svg" width="24" height="24" viewBox="0 0 24 24">
  <path id="Path_18368" data-name="Path 18368" d="M0,0H24V24H0Z" fill="none"/>
  <g id="Group_10664" data-name="Group 10664" transform="translate(15000 -2200)">
    <path id="Path_18369" data-name="Path 18369" d="M3,17H21a1,1,0,0,1,0,2H3a1,1,0,0,1,0-2Z" transform="translate(-15000 2200)"/>
    <path id="Path_18371" data-name="Path 18371" d="M13.84,7.79A2.063,2.063,0,0,0,14,7a2,2,0,0,0-4,0,2.063,2.063,0,0,0,.16.79A9.012,9.012,0,0,0,3,16H21A9.012,9.012,0,0,0,13.84,7.79Z" transform="matrix(0.966, -0.259, 0.259, 0.966, -15004.191, 2201.605)"/>
  </g>
</svg>
