<svg id="ic_period_added" xmlns="http://www.w3.org/2000/svg" width="24" height="24" viewBox="0 0 24 24">
  <path id="Path_18372" data-name="Path 18372" d="M0,0H24V24H0Z" fill="none"/>
  <path id="Subtraction_45" data-name="Subtraction 45" d="M15809.486-2509.4h0a8,8,0,0,1-4.185-3.214,7.974,7.974,0,0,1-1.245-5.327,7.953,7.953,0,0,1,2.327-4.748,7.961,7.961,0,0,1,4.772-2.273,8.262,8.262,0,0,1,.833-.042,7.943,7.943,0,0,1,5.648,2.354l.639-.651a.981.981,0,0,1,.7-.292,1,1,0,0,1,1.012,1v3.59a1,1,0,0,1-1,1h-3.59a.975.975,0,0,1-.915-.611,1,1,0,0,1,.216-1.1l1.51-1.509a5.916,5.916,0,0,0-4.218-1.779,5.974,5.974,0,0,0-4.67,2.238,6.014,6.014,0,0,0-1.18,5.081,5.929,5.929,0,0,0,2.8,3.859,4.9,4.9,0,0,0,.546,2.421Z" transform="translate(-15799.983 2528.997)"/>
  <path id="Path_18374" data-name="Path 18374" d="M10.71,16.29a1,1,0,0,1-1.41,0L7.2,14.2a1,1,0,0,1,1.41-1.41L10,14.18,14.48,9.7a1,1,0,0,1,1.41,1.41l-5.18,5.18Z" transform="translate(4 4)"/>
</svg>
