<svg id="ic_password" xmlns="http://www.w3.org/2000/svg" width="24" height="24" viewBox="0 0 24 24">
  <g id="Group_10558" data-name="Group 10558">
    <path id="Path_18356" data-name="Path 18356" d="M0,0H24V24H0Z" fill="none"/>
    <path id="Path_18357" data-name="Path 18357" d="M0,0H24V24H0Z" fill="none" opacity="0.87"/>
  </g>
  <path id="Path_18358" data-name="Path 18358" d="M18,8H17V6A5,5,0,0,0,7,6V8H6a2.006,2.006,0,0,0-2,2V20a2.006,2.006,0,0,0,2,2H18a2.006,2.006,0,0,0,2-2V10A2.006,2.006,0,0,0,18,8Zm-6,9a2,2,0,1,1,2-2A2.006,2.006,0,0,1,12,17ZM9,8V6a3,3,0,0,1,6,0V8Z"/>
</svg>
