<svg xmlns="http://www.w3.org/2000/svg" xmlns:xlink="http://www.w3.org/1999/xlink" width="24" height="24" viewBox="0 0 24 24">
  <defs>
    <clipPath id="clip-path">
      <rect width="24" height="24" fill="none"/>
    </clipPath>
  </defs>
  <g id="ic_Ruler" clip-path="url(#clip-path)">
    <path id="Path_397" data-name="Path 397" d="M0,0H24V24H0Z" fill="none"/>
    <path id="Path_398" data-name="Path 398" d="M21,6H3A2.006,2.006,0,0,0,1,8v8a2.006,2.006,0,0,0,2,2H21a2.006,2.006,0,0,0,2-2V8A2.006,2.006,0,0,0,21,6ZM20,16H4a1,1,0,0,1-1-1V9A1,1,0,0,1,4,8H5v3a1,1,0,0,0,2,0V8H9v3a1,1,0,0,0,2,0V8h2v3a1,1,0,0,0,2,0V8h2v3a1,1,0,0,0,2,0V8h1a1,1,0,0,1,1,1v6A1,1,0,0,1,20,16Z"/>
  </g>
</svg>
