<svg id="ic_ShowCard" xmlns="http://www.w3.org/2000/svg" width="24" height="24" viewBox="0 0 24 24">
  <path id="Path_18361" data-name="Path 18361" d="M0,0H24V24H0Z" fill="none"/>
  <path id="Subtraction_43" data-name="Subtraction 43" d="M15323.14,22755H15314a2,2,0,0,1-2-2l.012-12a1.973,1.973,0,0,1,1.987-2h16a2,2,0,0,1,2,2v6h-18v5a1,1,0,0,0,1,1h6.884a3.043,3.043,0,0,0,1.256,2Zm-9.142-14h0v2h16v-2Z" transform="translate(-15310 -22735)"/>
  <path id="Path_18363" data-name="Path 18363" d="M10.71,16.29a1,1,0,0,1-1.41,0L7.2,14.2a1,1,0,0,1,1.41-1.41L10,14.18,14.48,9.7a1,1,0,0,1,1.41,1.41l-5.18,5.18Z" transform="translate(7 4)"/>
</svg>
