<svg xmlns="http://www.w3.org/2000/svg" xmlns:xlink="http://www.w3.org/1999/xlink" width="24" height="24" viewBox="0 0 24 24">
  <defs>
    <clipPath id="clip-path">
      <rect width="24" height="24" fill="none"/>
    </clipPath>
  </defs>
  <g id="ic_shower" clip-path="url(#clip-path)">
    <path id="Path_309" data-name="Path 309" d="M0,24H24V0H0Z" fill="none"/>
    <path id="Path_310" data-name="Path 310" d="M6.29,12.71,10,10V3a1,1,0,0,1,1-1h2a1,1,0,0,1,1,1v7l3.71,2.71a.99.99,0,0,1,.29.71V14a1,1,0,0,1-1,1H7a1,1,0,0,1-1-1v-.59A1.009,1.009,0,0,1,6.29,12.71Z"/>
    <path id="Path_311" data-name="Path 311" d="M16.115,5.085A1.462,1.462,0,0,0,17.5,3.552a5.082,5.082,0,0,0-1.025-2.268.433.433,0,0,0-.729,0,5.166,5.166,0,0,0-1.015,2.268,1.462,1.462,0,0,0,1.385,1.533Zm-4.615,0a1.462,1.462,0,0,0,1.385-1.533A5.083,5.083,0,0,0,11.86,1.284a.433.433,0,0,0-.729,0,5.166,5.166,0,0,0-1.015,2.268A1.462,1.462,0,0,0,11.5,5.085Zm-4.615,0A1.462,1.462,0,0,0,8.269,3.552,5.083,5.083,0,0,0,7.245,1.284a.433.433,0,0,0-.729,0A5.166,5.166,0,0,0,5.5,3.552,1.462,1.462,0,0,0,6.885,5.085Z" transform="translate(0.5 15.915)"/>
  </g>
</svg>
